<?xml version="1.0" encoding="utf-8"?>
<!-- Generator: Adobe Illustrator 23.0.2, SVG Export Plug-In . SVG Version: 6.00 Build 0)  -->
<svg version="1.1" id="Layer_1" xmlns="http://www.w3.org/2000/svg" xmlns:xlink="http://www.w3.org/1999/xlink" x="0px" y="0px"
	 viewBox="0 0 203 88" style="enable-background:new 0 0 203 88;" xml:space="preserve">
<style type="text/css">
	.st0{fill-rule:evenodd;clip-rule:evenodd;fill:#1f1a17;}
	.st1{fill:#1f1a17;}
	.st2{fill-rule:evenodd;clip-rule:evenodd;fill:#1f1a17;}
</style>
<title>Logo</title>
<path class="st0" d="M195.5,114.4h-2.1v4.3l2.1,5.7h-2.1v2.9h3.6l1.4,4.3h3.6L195.5,114.4z M193.4,114.4H192l-7.2,17.2h3.6l1.4-4.3
	h3.6v-2.9h-2.2l2.2-6.5L193.4,114.4L193.4,114.4z"/>
<path class="st0" d="M172.6,115.8c-0.7-0.7-1.4-0.7-2.9-1.4h-2.2v2.9h0.7c0.7,0,0.7,0.7,1.4,0.7c0.5,0.6,0.8,1.4,0.7,2.2
	c0.7,0,0.7,1.4,0.7,2.9s0,2.2-0.7,2.9c0.1,0.8-0.2,1.6-0.7,2.2c-0.6,0.1-1.1,0.3-1.4,0.7h-0.7v2.9c0.8,0.1,1.6-0.2,2.2-0.7
	c2.2-0.3,4-2.1,4.3-4.3c0.7-0.7,0.7-2.2,0.7-3.6c0.1-1.5-0.1-3-0.7-4.3C173.8,117.6,173.3,116.6,172.6,115.8z M167.6,114.4h-7.2
	v17.2h7.2v-2.9h-4.3v-11.5h4.3V114.4z"/>
<rect x="178.3" y="114.4" class="st1" width="3.6" height="17.2"/>
<polygon class="st0" points="155.3,114.4 151.8,114.4 151.8,125.8 143.9,114.4 139.6,114.4 139.6,131.6 143.1,131.6 143.1,120.1 
	151,131.6 155.3,131.6 "/>
<rect x="131.6" y="114.4" class="st1" width="3.6" height="17.2"/>
<path class="st0" d="M104.4,117.9c-0.9,1.5-1.4,3.2-1.4,5c0.1,1.5,0.6,3,1.4,4.3c0.7,1.4,1.4,2.9,2.9,3.6c1.4,0.7,2.9,0.7,5,0.7
	c1.5,0.1,2.9-0.1,4.3-0.7c1.1,0,2.2-0.6,2.9-1.4v-7.2h-7.9v2.9h4.3v2.2c-0.7,0.7-1.4,0.7-2.2,1.4h-2.2c-1.3,0.2-2.7-0.4-3.5-1.4
	c-0.9-1.3-1.4-2.8-1.4-4.3c-0.1-1.6,0.4-3.1,1.4-4.3c1.4-1.4,2.2-2.2,3.6-2.2c1.1,0,2.2,0.5,2.9,1.4c0.8,0.1,1.4,0.7,1.4,1.4
	l3.6-0.7c-0.7-1.4-1.4-2.9-2.9-3.6c-0.7-0.7-2.9-1.4-5-1.4c-1.4,0-2.9,0.7-3.6,0.7C106.5,115.8,105.1,116.5,104.4,117.9z"/>
<polygon class="st0" points="99.3,114.4 95.8,114.4 95.8,125.8 87.9,114.4 83.6,114.4 83.6,131.6 87.1,131.6 87.1,120.1 95,131.6 
	99.3,131.6 "/>
<rect x="74.9" y="114.4" class="st1" width="3.6" height="17.2"/>
<polygon class="st0" points="46.9,114.4 43.3,114.4 43.3,131.6 53.4,131.6 53.4,128.7 46.9,128.7 "/>
<path class="st0" d="M69.2,115.8c-0.7-0.7-1.4-0.7-2.9-1.4h-2.2v2.9h0.7c0.7,0,0.7,0.7,1.4,0.7c0.5,0.6,0.8,1.4,0.7,2.2
	c0.7,0,0.7,1.4,0.7,2.9s0,2.2-0.7,2.9c0.1,0.8-0.2,1.6-0.7,2.2c-0.5,0.1-1.1,0.3-1.4,0.7h-0.7v2.9c0.8,0.1,1.6-0.2,2.2-0.7
	c2.2-0.3,4-2.1,4.3-4.3c0.7-0.7,0.7-2.2,0.7-3.6c0.1-1.5-0.1-3-0.7-4.3C70.4,117.6,69.9,116.6,69.2,115.8z M64.2,114.4H57v17.2h7.2
	v-2.9h-4.3v-11.5h4.3L64.2,114.4z"/>
<path class="st0" d="M20.4,114.4h-3.6v9.3c0,1.4,0.7,2.9,0.7,4.3c0.1,0.5,0.3,1.1,0.7,1.4l2.1,2.1h7.2c0.7-0.7,1.4-0.7,2.1-1.4
	c0.6-0.6,0.8-1.4,0.7-2.2c0.7-1.4,0.7-2.9,0.7-5v-8.6h-3.6v12.2c-0.7,0.7-0.7,1.4-1.4,1.4c0,0.7-0.7,0.7-2.1,0.7
	c-0.8,0.1-1.6-0.2-2.1-0.7c-0.7,0-0.7-0.7-1.4-1.4V114.4z"/>
<path class="st0" d="M14.6,116.5c-0.7-0.7-0.7-1.4-1.4-1.4c-0.4-0.4-0.9-0.7-1.4-0.7H8.2v2.9h1.4c0.7,0,1.4,0,1.4,0.7
	c0.7,0,0.7,0.7,0.7,1.4c0,0.4-0.3,0.7-0.7,0.7c0,0,0,0,0,0c0,0.7-0.7,0.7-1.4,0.7H8.2v2.9c1.4,0,2.1,0.7,2.9,0.7
	c0.4,0,0.7,0.3,0.7,0.7c0,0,0,0,0,0c0.7,0,0.7,0.7,0.7,1.4s0,0.7-0.7,1.4c-0.4,0.4-0.9,0.6-1.4,0.7H8.2v2.9h3.6
	c0.7,0,1.4-0.7,2.1-0.7c0.7-0.7,1.4-1.4,1.4-2.2c0.5-0.6,0.8-1.4,0.7-2.2c0-0.7-0.7-2.2-0.7-2.9c-0.7-0.7-1.4-0.7-2.9-1.4
	c0.7,0,1.4-0.7,2.1-1.4c0-0.7,0.7-1.4,0.7-2.2S14.6,117.2,14.6,116.5z M8.2,114.4H1v17.2h7.2v-2.9H4.6v-5h3.6v-2.9H4.6v-3.6h3.6
	V114.4z"/>
<rect x="36.2" y="114.4" class="st1" width="3.6" height="17.2"/>
<g>
	<polygon class="st2" points="148.9,51.9 138.8,34.7 129.5,51.9 	"/>
	<polygon class="st2" points="159.6,34.7 150.3,51.9 169.7,51.9 	"/>
	<polygon class="st2" points="139.6,33.2 149.6,50.5 159.6,33.2 	"/>
	<polygon class="st2" points="148.9,53.3 129.5,53.3 139.6,70.6 	"/>
	<polygon class="st2" points="169.7,53.3 149.6,53.3 159.6,70.6 	"/>
	<polygon class="st2" points="140.3,71.3 159.6,71.3 149.6,54 	"/>
	<polygon class="st2" points="119.4,72 138.8,72 128.8,54.8 	"/>
	<polygon class="st2" points="160.4,71.3 179.8,71.3 169.7,54 	"/>
	<path class="st2" d="M57,35.4c-3.4-1.5-7.1-2.2-10.8-2.1h-3.6v8.6h0.7c2.2,0,3.6,0,5,2.2c2.2,2.2,2.2,5,1.4,9.3
		c-0.7,2.9-1.4,6.5-4.3,7.9c-0.8,0.8-1.8,1.3-2.9,1.4v8.6c3.6,0,6.5-1.4,10-3.6c4.3-3.6,7.2-8.6,8.6-15.8C62,46.2,62.7,39,57,35.4z
		 M42.6,33.2H29.7L23.3,72h14.4c2.2,0,3.6,0,5-0.7v-8.6c-1.4,0-2.2,0.7-3.6,0h-3.6L39,41.8h3.6V33.2z"/>
	<polygon class="st2" points="80,33.2 67.8,33.2 61.3,72 88.6,72 90.7,63.4 74.2,63.4 	"/>
	<polygon class="st2" points="109.4,42.6 125.2,42.6 127.3,33.2 99.3,33.2 92.2,72 103.7,72 106.5,57.6 119.4,57.6 121.6,49 108,49 
			"/>
	<polygon class="st2" points="140.3,31.8 158.2,32.5 149.6,16 	"/>
</g>
</svg>
